<svg width="282" height="72" viewBox="0 0 282 72" fill="none" xmlns="http://www.w3.org/2000/svg">
<path d="M35.88 71.152C30.76 71.152 26.024 70.256 21.672 68.464C17.384 66.672 13.608 64.176 10.344 60.976C7.08 57.776 4.552 54.064 2.76 49.84C0.968 45.552 0.0720001 40.944 0.0720001 36.016C0.0720001 31.024 0.968 26.416 2.76 22.192C4.552 17.968 7.048 14.288 10.248 11.152C13.448 7.952 17.192 5.488 21.48 3.75999C25.832 1.96799 30.568 1.07199 35.688 1.07199C40.744 1.07199 45.416 1.96799 49.704 3.75999C54.056 5.488 57.832 7.952 61.032 11.152C64.296 14.288 66.824 18 68.616 22.288C70.408 26.512 71.304 31.12 71.304 36.112C71.304 41.04 70.408 45.648 68.616 49.936C66.824 54.16 64.328 57.872 61.128 61.072C57.928 64.208 54.152 66.672 49.8 68.464C45.512 70.256 40.872 71.152 35.88 71.152ZM35.688 57.424C39.72 57.424 43.24 56.528 46.248 54.736C49.32 52.944 51.688 50.448 53.352 47.248C55.016 43.984 55.848 40.24 55.848 36.016C55.848 32.816 55.368 29.936 54.408 27.376C53.448 24.752 52.072 22.512 50.28 20.656C48.488 18.736 46.344 17.296 43.848 16.336C41.416 15.312 38.696 14.8 35.688 14.8C31.656 14.8 28.104 15.696 25.032 17.488C22.024 19.216 19.688 21.68 18.024 24.88C16.36 28.016 15.528 31.728 15.528 36.016C15.528 39.216 16.008 42.128 16.968 44.752C17.928 47.376 19.272 49.648 21 51.568C22.792 53.424 24.936 54.864 27.432 55.888C29.928 56.912 32.68 57.424 35.688 57.424ZM79.9118 70V2.224H90.6638L117.352 43.792H111.88L138.472 2.224H149.32V70H134.248V27.664L136.936 28.336L119.56 55.408H109.576L92.2958 28.336L94.8878 27.664V70H79.9118ZM171.534 70V56.752H188.334C192.43 56.752 196.014 55.952 199.086 54.352C202.158 52.688 204.526 50.288 206.19 47.152C207.854 44.016 208.686 40.304 208.686 36.016C208.686 31.728 207.822 28.048 206.094 24.976C204.43 21.904 202.062 19.536 198.99 17.872C195.982 16.208 192.43 15.376 188.334 15.376H171.054V2.224H188.526C193.646 2.224 198.35 3.056 202.638 4.72C206.99 6.32 210.766 8.656 213.966 11.728C217.23 14.736 219.726 18.32 221.454 22.48C223.246 26.576 224.142 31.12 224.142 36.112C224.142 41.04 223.246 45.584 221.454 49.744C219.726 53.904 217.262 57.488 214.062 60.496C210.862 63.504 207.086 65.84 202.734 67.504C198.446 69.168 193.774 70 188.718 70H171.534ZM161.358 70V2.224H176.43V70H161.358ZM258.309 70.96C255.173 70.96 252.293 70.32 249.669 69.04C247.045 67.696 244.901 65.936 243.237 63.76C241.573 61.52 240.613 59.024 240.357 56.272V36.592C240.613 33.84 241.573 31.408 243.237 29.296C244.901 27.12 247.045 25.424 249.669 24.208C252.293 22.992 255.173 22.384 258.309 22.384C262.725 22.384 266.629 23.44 270.021 25.552C273.477 27.664 276.165 30.544 278.085 34.192C280.069 37.84 281.061 42 281.061 46.672C281.061 51.344 280.069 55.504 278.085 59.152C276.165 62.8 273.477 65.68 270.021 67.792C266.629 69.904 262.725 70.96 258.309 70.96ZM255.717 57.712C257.765 57.712 259.557 57.232 261.093 56.272C262.693 55.312 263.941 54 264.837 52.336C265.733 50.672 266.181 48.784 266.181 46.672C266.181 44.496 265.733 42.576 264.837 40.912C263.941 39.248 262.693 37.968 261.093 37.072C259.557 36.112 257.765 35.632 255.717 35.632C253.669 35.632 251.845 36.112 250.245 37.072C248.645 37.968 247.397 39.248 246.501 40.912C245.669 42.576 245.253 44.496 245.253 46.672C245.253 48.848 245.701 50.768 246.597 52.432C247.493 54.096 248.709 55.408 250.245 56.368C251.845 57.264 253.669 57.712 255.717 57.712ZM231.429 70V0.303999H246.117V34.768L243.717 46.096L245.925 57.424V70H231.429Z" fill="url(#paint0_linear_773_2171)" fill-opacity="0.4"/>
<defs>
<linearGradient id="paint0_linear_773_2171" x1="15.895" y1="-0.999999" x2="283.381" y2="64.0469" gradientUnits="userSpaceOnUse">
<stop stop-color="#F1E8FD"/>
<stop offset="0.382376" stop-color="#6326A2"/>
<stop offset="0.690211" stop-color="#782243"/>
<stop offset="1" stop-color="#FBF2F8"/>
</linearGradient>
</defs>
</svg>
